<svg width="25" height="25" viewBox="0 0 25 25" fill="none" xmlns="http://www.w3.org/2000/svg">
<path d="M2.66787 7.17164L11.843 1.6707C11.9973 1.57817 12.1737 1.5293 12.3535 1.5293C12.5334 1.5293 12.7098 1.57817 12.8641 1.6707L22.0303 7.17263C22.1038 7.2167 22.1647 7.27907 22.207 7.35368C22.2492 7.42828 22.2714 7.51256 22.2714 7.5983V20.2155C22.2714 20.4787 22.1669 20.7311 21.9808 20.9171C21.7947 21.1032 21.5423 21.2078 21.2792 21.2078H3.41899C3.15583 21.2078 2.90346 21.1032 2.71738 20.9171C2.5313 20.7311 2.42676 20.4787 2.42676 20.2155V7.5973C2.42674 7.51157 2.44894 7.42729 2.4912 7.35268C2.53346 7.27808 2.59432 7.21571 2.66787 7.17164ZM4.41122 8.4407V19.2233H20.2869V8.43971L12.3531 3.67699L4.41122 8.43971V8.4407ZM12.4086 13.9625L17.6635 9.53414L18.9415 11.0523L12.4225 16.5462L5.76463 11.0592L7.02675 9.5272L12.4086 13.9625Z" fill="#868A94"/>
</svg>
